<?xml version="1.0" encoding="UTF-8"?><svg id="Calque_1" xmlns="http://www.w3.org/2000/svg" viewBox="0 0 1876.28 1197.19"><path d="m371.33,23.32h320.55l-125.29,793.75c-22.07,138.27-60.03,236.19-113.88,293.77-53.85,57.58-132.26,86.34-235.22,86.34-37.82,0-74.34-4.09-109.52-12.23-35.21-8.16-71.18-20.89-107.96-38.26l43.34-276.02c23.65,14.17,44.25,24.42,61.87,30.71,17.59,6.32,33.48,9.45,47.66,9.45,28.36,0,49.76-9.05,64.22-27.19,14.45-18.12,25.87-53.71,34.29-106.77L371.33,23.32Z" fill="#a1baff"/><path d="m1140.93,509.19h411.33c-8.95,233.28-53.59,406.27-133.94,518.95-80.35,112.7-199.05,169.04-356.06,169.04-121.85,0-214.68-37.45-278.49-112.38-63.81-74.93-95.72-183.38-95.72-325.33,0-110.94,13.26-216.62,39.78-317.03,26.52-100.41,63.69-185.87,111.51-256.32,41.5-61.5,93.49-107.9,156.01-139.2C1057.86,15.65,1129.57,0,1210.47,0c100.86,0,182.93,23.56,246.24,70.67,63.28,47.13,103.35,114.63,120.17,202.53l-295.69,110.31c-8.42-36.52-19.31-62.07-32.72-76.63-13.4-14.56-31.91-21.84-55.53-21.84s-46.24,8.68-64.62,26.03c-18.38,17.35-34.15,44.17-47.29,80.45-17.86,51.02-33.63,116.61-47.27,196.8-13.67,80.19-20.49,149.2-20.49,207.02,0,44.17,6.15,75.33,18.5,93.47,12.35,18.14,33.22,27.21,62.66,27.21,36.24,0,65.27-15.49,87.07-46.46,21.8-30.97,34.54-75.09,38.22-132.34h-109.52l30.73-228.04Z" fill="#a1baff"/><path d="m1876.28,984.32c0,58.81-18.36,108.55-55.07,149.24-36.72,40.69-82.34,61.04-136.87,61.04-41.44,0-74.89-13.67-100.31-40.96-25.41-27.29-38.14-63.79-38.14-109.46,0-60.37,17.98-110.66,53.87-150.82,35.91-40.17,81.42-60.25,136.49-60.25,41.95,0,75.78,13.79,101.49,41.36,25.69,27.57,38.55,64.18,38.55,109.85Z" fill="#a1baff"/></svg>